<svg width="592" height="170" viewBox="0 0 592 170" fill="none" xmlns="http://www.w3.org/2000/svg">
<g clip-path="url(#clip0_35134_29727)">
<path d="M147.5 0H22.5C10.0736 0 0 10.0736 0 22.5V147.5C0 159.926 10.0736 170 22.5 170H147.5C159.926 170 170 159.926 170 147.5V22.5C170 10.0736 159.926 0 147.5 0Z" fill="#0146FE"/>
<path d="M137.045 41.94H78.795C70.755 41.94 63.22 45.885 58.635 52.495L50.46 64.285C49.44 65.76 47.76 66.64 45.965 66.64H32.96V90.705H45.965C55.645 90.705 64.715 85.955 70.235 78L78.41 66.21C78.5 66.085 78.64 66.01 78.795 66.01H132.04L137.045 41.945V41.94Z" fill="white"/>
<path d="M90.8 75.72C85.74 75.72 81.22 78.885 79.49 83.64L68.295 114.42L86.605 134.485L99.225 99.785H125.5L130.505 75.72H90.8Z" fill="white"/>
</g>
<path d="M202 117.59V53.3135H245.69V66.3486H216.865V80.1983H240.612V92.2402H216.865V117.59H202ZM261.856 118.494C259.499 118.494 257.292 118.132 255.242 117.406C253.248 116.62 251.527 115.565 250.075 114.237C248.622 112.847 247.477 111.251 246.628 109.438C245.785 107.569 245.36 105.543 245.36 103.372C245.36 101.018 245.846 98.8749 246.812 96.9442C247.84 95.0135 249.259 93.3506 251.075 91.9667C252.89 90.5773 255.03 89.4892 257.51 88.708C259.99 87.9212 262.739 87.5306 265.755 87.5306C267.749 87.5306 269.682 87.7091 271.554 88.0718C273.425 88.3732 275.056 88.8586 276.447 89.5227V87.352C276.447 81.8612 273.274 79.1158 266.928 79.1158C264.331 79.1158 261.85 79.5678 259.499 80.4718C257.141 81.3144 254.667 82.6145 252.069 84.3667L247.807 75.3102C250.946 73.2567 254.214 71.7166 257.594 70.6955C260.979 69.6687 264.571 69.1554 268.381 69.1554C275.57 69.1554 281.128 70.8461 285.055 74.2277C288.983 77.6092 290.949 82.5587 290.949 89.0762V101.297C290.949 102.747 291.161 103.774 291.586 104.377C292.072 104.918 292.887 105.253 294.033 105.37V117.59C292.764 117.892 291.614 118.076 290.586 118.132C289.558 118.254 288.619 118.31 287.776 118.31C285.056 118.31 283.005 117.797 281.614 116.77C280.223 115.682 279.346 114.175 278.983 112.245L278.71 110.074C276.592 112.792 274.056 114.873 271.096 116.324C268.196 117.775 265.113 118.494 261.85 118.494H261.856ZM266.118 108.082C267.688 108.082 269.202 107.809 270.649 107.267C272.157 106.726 273.397 106.001 274.364 105.097C275.754 104.009 276.447 102.865 276.447 101.654V97.1283C275.179 96.6428 273.788 96.2857 272.28 96.0402C270.827 95.7389 269.47 95.5882 268.202 95.5882C265.543 95.5882 263.336 96.1908 261.588 97.4017C259.895 98.607 259.052 100.181 259.052 102.111C259.052 103.863 259.717 105.309 261.046 106.458C262.376 107.546 264.068 108.088 266.124 108.088L266.118 108.082ZM323.846 118.494C319.796 118.494 315.807 117.858 311.88 116.592C307.953 115.264 304.63 113.361 301.909 110.889L307.076 102.016C309.976 104.009 312.785 105.549 315.506 106.631C318.288 107.719 320.947 108.261 323.483 108.261C325.354 108.261 326.807 107.931 327.835 107.267C328.862 106.603 329.376 105.638 329.376 104.371C329.376 103.105 328.712 102.106 327.382 101.386C326.114 100.599 323.846 99.7844 320.584 98.9418C317.383 98.0379 314.662 97.1618 312.428 96.3136C310.255 95.471 308.467 94.5336 307.082 93.5068C305.691 92.4801 304.697 91.3027 304.093 89.9746C303.49 88.6466 303.188 87.0786 303.188 85.2651C303.188 82.8489 303.669 80.6503 304.641 78.6582C305.607 76.6662 306.937 74.9754 308.629 73.586C310.322 72.1965 312.316 71.1084 314.612 70.3272C316.969 69.5404 319.506 69.1498 322.226 69.1498C325.79 69.1498 329.114 69.6353 332.197 70.6006C335.337 71.566 338.359 73.3181 341.264 75.8515L335.644 84.5452C332.924 82.6759 330.51 81.3144 328.393 80.4718C326.276 79.6292 324.226 79.2051 322.232 79.2051C320.662 79.2051 319.332 79.5343 318.243 80.1983C317.154 80.801 316.612 81.7998 316.612 83.1837C316.612 84.5675 317.187 85.505 318.332 86.169C319.539 86.8331 321.746 87.5585 324.946 88.3397C328.332 89.2436 331.17 90.1532 333.465 91.0572C335.823 91.9611 337.728 92.9879 339.175 94.1374C340.627 95.2255 341.683 96.4922 342.347 97.9374C343.012 99.3882 343.342 101.107 343.342 103.099C343.342 107.809 341.588 111.547 338.085 114.326C334.583 117.105 329.84 118.489 323.857 118.489L323.846 118.494ZM384.758 115.052C382.764 115.894 380.468 116.681 377.87 117.406C375.334 118.132 372.764 118.494 370.167 118.494C368.351 118.494 366.631 118.254 365 117.769C363.43 117.345 362.039 116.653 360.832 115.688C359.626 114.661 358.659 113.333 357.933 111.703C357.268 110.074 356.939 108.11 356.939 105.816V81.0075H350.866V70.0538H356.939V54.9429H371.44V70.0649H381.138V81.0186H371.44V100.845C371.44 102.413 371.831 103.562 372.619 104.288C373.407 104.952 374.401 105.281 375.608 105.281C376.697 105.281 377.814 105.102 378.959 104.74C380.11 104.377 381.104 103.986 381.948 103.562L384.758 115.063V115.052ZM393.847 51.5H408.348V100.66C408.348 104.282 409.89 106.095 412.968 106.095C413.694 106.095 414.476 106.006 415.326 105.822C416.23 105.582 417.046 105.247 417.772 104.829L419.677 115.693C417.862 116.536 415.778 117.2 413.421 117.685C411.063 118.171 408.857 118.411 406.807 118.411C402.639 118.411 399.433 117.323 397.198 115.152C394.964 112.981 393.847 109.84 393.847 105.738V51.5ZM441.519 118.5C439.162 118.5 436.955 118.137 434.905 117.412C432.911 116.625 431.19 115.57 429.738 114.242C428.285 112.853 427.14 111.257 426.291 109.444C425.448 107.574 425.023 105.549 425.023 103.378C425.023 101.023 425.509 98.8804 426.476 96.9497C427.503 95.019 428.922 93.3562 430.738 91.9723C432.553 90.5884 434.693 89.4948 437.173 88.7135C439.653 87.9268 442.402 87.5361 445.418 87.5361C447.413 87.5361 449.345 87.7147 451.217 88.0774C453.088 88.3787 454.719 88.8642 456.11 89.5282V87.3576C456.11 81.8668 452.937 79.1214 446.591 79.1214C443.994 79.1214 441.514 79.5734 439.162 80.4773C436.804 81.3199 434.33 82.6201 431.732 84.3722L427.47 75.3158C430.609 73.2623 433.877 71.7222 437.257 70.701C440.642 69.6743 444.234 69.1609 448.044 69.1609C455.233 69.1609 460.792 70.8517 464.719 74.2332C468.646 77.6148 470.612 82.5643 470.612 89.0818V101.302C470.612 102.753 470.819 103.78 471.249 104.382C471.729 104.924 472.545 105.258 473.696 105.376V117.596C472.428 117.897 471.277 118.081 470.249 118.137C469.221 118.26 468.283 118.316 467.439 118.316C464.719 118.316 462.668 117.802 461.278 116.776C459.887 115.688 459.01 114.181 458.646 112.25L458.373 110.08C456.256 112.797 453.719 114.879 450.759 116.329C447.859 117.78 444.776 118.5 441.514 118.5H441.519ZM445.781 108.088C447.351 108.088 448.865 107.814 450.312 107.273C451.82 106.732 453.06 106.006 454.027 105.102C455.418 104.014 456.11 102.87 456.11 101.659V97.1339C454.842 96.6484 453.451 96.2913 451.943 96.0458C450.491 95.7444 449.133 95.5938 447.865 95.5938C445.206 95.5938 443 96.1964 441.251 97.4073C439.558 98.6126 438.715 100.186 438.715 102.117C438.715 103.869 439.38 105.314 440.709 106.464C442.039 107.552 443.731 108.093 445.787 108.093L445.781 108.088ZM530.613 117.596H516.112V90.8898C516.112 87.7538 515.503 85.4883 514.296 84.0988C513.145 82.648 511.604 81.9282 509.676 81.9282C508.648 81.9282 507.621 82.1402 506.593 82.5643C505.565 82.9884 504.565 83.591 503.604 84.3778C502.632 85.1032 501.761 85.9793 500.973 87.006C500.247 88.0328 499.671 89.1488 499.252 90.3541V117.607H484.751V70.0593H497.8V78.0277C499.549 75.193 502.029 73.0168 505.23 71.5102C508.431 69.9422 512.117 69.1554 516.285 69.1554C519.368 69.1554 521.843 69.7301 523.714 70.874C525.586 71.9621 527.038 73.4074 528.066 75.2209C529.088 76.9731 529.759 78.9038 530.06 81.013C530.423 83.1279 530.602 85.1758 530.602 87.1679V117.59L530.613 117.596ZM566.622 118.5C562.633 118.5 559.036 117.864 555.835 116.597C552.69 115.269 550.003 113.489 547.769 111.257C545.595 109.025 543.931 106.458 542.786 103.562C541.635 100.605 541.065 97.5245 541.065 94.3271C541.065 90.8842 541.635 87.6589 542.786 84.6401C543.931 81.5599 545.595 78.8759 547.769 76.5825C549.942 74.289 552.601 72.4755 555.746 71.1475C558.946 69.8194 562.572 69.1554 566.622 69.1554C570.672 69.1554 574.264 69.8194 577.409 71.1475C580.548 72.4755 583.207 74.2835 585.386 76.5825C587.559 78.8145 589.19 81.4092 590.279 84.3667C591.425 87.3241 592 90.4322 592 93.691C592 94.5336 591.966 95.3817 591.911 96.2243C591.849 97.0111 591.754 97.703 591.637 98.3057H556.472C556.712 101.503 557.857 103.947 559.918 105.638C562.03 107.267 564.421 108.082 567.08 108.082C569.192 108.082 571.219 107.569 573.152 106.542C575.146 105.515 576.476 104.126 577.141 102.379L589.469 105.822C587.592 109.566 584.693 112.613 580.766 114.968C576.839 117.323 572.124 118.5 566.628 118.5H566.622ZM576.683 89.3497C576.381 86.3309 575.292 83.9482 573.42 82.196C571.543 80.4439 569.22 79.5678 566.443 79.5678C563.667 79.5678 561.242 80.4718 559.371 82.2853C557.556 84.0374 556.5 86.3922 556.198 89.3497H576.683Z" fill="black"/>
<defs>
<clipPath id="clip0_35134_29727">
<rect width="170" height="170" fill="white"/>
</clipPath>
</defs>
</svg>
